<svg width="240" height="77" viewBox="0 0 240 77" fill="none" xmlns="http://www.w3.org/2000/svg">
<mask id="path-1-inside-1_14_26" fill="white">
<path fill-rule="evenodd" clip-rule="evenodd" d="M49.0558 22.8777C48.9535 22.6849 48.8474 22.4931 48.7374 22.3026C43.7998 13.7503 32.8641 10.8201 24.3118 15.7578C15.7595 20.6954 12.8293 31.6311 17.767 40.1834C17.8173 40.2705 17.8682 40.357 17.9197 40.443C14.1361 45.9467 13.6037 53.3564 17.1656 59.5258C22.1032 68.0781 33.0389 71.0083 41.5912 66.0706C44.7375 64.2541 47.1229 61.6258 48.6356 58.603C52.0097 58.8044 55.4786 58.0527 58.6249 56.2362C67.1772 51.2986 70.1074 40.3628 65.1698 31.8106C61.7486 25.885 55.448 22.6583 49.0558 22.8777Z"/>
</mask>
<path fill-rule="evenodd" clip-rule="evenodd" d="M49.0558 22.8777C48.9535 22.6849 48.8474 22.4931 48.7374 22.3026C43.7998 13.7503 32.8641 10.8201 24.3118 15.7578C15.7595 20.6954 12.8293 31.6311 17.767 40.1834C17.8173 40.2705 17.8682 40.357 17.9197 40.443C14.1361 45.9467 13.6037 53.3564 17.1656 59.5258C22.1032 68.0781 33.0389 71.0083 41.5912 66.0706C44.7375 64.2541 47.1229 61.6258 48.6356 58.603C52.0097 58.8044 55.4786 58.0527 58.6249 56.2362C67.1772 51.2986 70.1074 40.3628 65.1698 31.8106C61.7486 25.885 55.448 22.6583 49.0558 22.8777Z" fill="#FDE047"/>
<path d="M49.0558 22.8777L46.4052 24.2829L47.2839 25.9403L49.1587 25.8759L49.0558 22.8777ZM17.9198 40.443L20.3919 42.1426L21.4841 40.5538L20.4927 38.9003L17.9198 40.443ZM48.6356 58.603L48.8143 55.6083L46.8385 55.4904L45.9527 57.2604L48.6356 58.603ZM46.1394 23.8026C46.2313 23.9618 46.3199 24.122 46.4052 24.2829L51.7063 21.4725C51.5872 21.2478 51.4636 21.0244 51.3355 20.8026L46.1394 23.8026ZM25.8118 18.3558C32.9292 14.2466 42.0301 16.6852 46.1394 23.8026L51.3355 20.8026C45.5694 10.8154 32.7989 7.3936 22.8118 13.1597L25.8118 18.3558ZM20.3651 38.6834C16.2558 31.566 18.6944 22.465 25.8118 18.3558L22.8118 13.1597C12.8247 18.9257 9.40283 31.6962 15.1689 41.6834L20.3651 38.6834ZM20.4927 38.9003C20.4497 38.8285 20.4071 38.7562 20.3651 38.6834L15.1689 41.6834C15.2275 41.7848 15.2868 41.8856 15.3468 41.9857L20.4927 38.9003ZM19.7636 58.0258C16.8016 52.8954 17.2386 46.7292 20.3919 42.1426L15.4476 38.7434C11.0335 45.1641 10.4057 53.8174 14.5675 61.0258L19.7636 58.0258ZM40.0912 63.4726C32.9738 67.5818 23.8729 65.1432 19.7636 58.0258L14.5675 61.0258C20.3336 71.0129 33.1041 74.4348 43.0912 68.6687L40.0912 63.4726ZM45.9527 57.2604C44.6948 59.7741 42.7134 61.9586 40.0912 63.4726L43.0912 68.6687C46.7616 66.5496 49.551 63.4774 51.3184 59.9455L45.9527 57.2604ZM57.1249 53.6381C54.5028 55.152 51.6202 55.7758 48.8143 55.6083L48.4568 61.5976C52.3993 61.833 56.4545 60.9534 60.1249 58.8343L57.1249 53.6381ZM62.5717 33.3106C66.6809 40.428 64.2423 49.5289 57.1249 53.6381L60.1249 58.8343C70.1121 53.0682 73.5339 40.2977 67.7678 30.3106L62.5717 33.3106ZM49.1587 25.8759C54.487 25.6931 59.7266 28.3828 62.5717 33.3106L67.7678 30.3106C63.7706 23.3872 56.409 19.6236 48.9529 19.8795L49.1587 25.8759Z" fill="#3F6212" mask="url(#path-1-inside-1_14_26)"/>
<path d="M40.371 26.3601C42.8398 30.6362 41.3747 36.1041 37.0986 38.5729C32.8224 41.0418 27.3546 39.5766 24.8857 35.3005C22.4169 31.0244 23.882 25.5565 28.1582 23.0877C32.4343 20.6189 37.9021 22.084 40.371 26.3601Z" fill="#FACC15"/>
<path d="M40.3934 46.1152C42.8622 50.3913 41.3971 55.8592 37.121 58.328C32.8449 60.7969 27.377 59.3317 24.9082 55.0556C22.4393 50.7795 23.9045 45.3116 28.1806 42.8428C32.4567 40.374 37.9246 41.8391 40.3934 46.1152Z" fill="#FACC15"/>
<path d="M57.4272 36.2808C59.896 40.5569 58.4309 46.0248 54.1547 48.4936C49.8786 50.9624 44.4107 49.4973 41.9419 45.2212C39.4731 40.9451 40.9382 35.4772 45.2143 33.0084C49.4905 30.5395 54.9583 32.0047 57.4272 36.2808Z" fill="#FACC15"/>
<path d="M96.208 36.936C98.0853 36.936 99.6 36.6587 100.752 36.104C101.947 35.5067 102.843 34.6747 103.44 33.608C104.037 32.4987 104.336 31.1973 104.336 29.704C104.336 27.4427 103.675 25.6933 102.352 24.456C101.029 23.176 98.9813 22.536 96.208 22.536H86.288V36.936H96.208ZM112.016 29.704C112.016 31.3253 111.739 32.9253 111.184 34.504C110.629 36.0827 109.733 37.5547 108.496 38.92C107.259 40.2427 105.616 41.3093 103.568 42.12C101.563 42.888 99.1093 43.272 96.208 43.272H86.288V61H78.672V16.2H96.208C99.792 16.2 102.736 16.8187 105.04 18.056C107.387 19.2507 109.136 20.8933 110.288 22.984C111.44 25.032 112.016 27.272 112.016 29.704ZM130.436 61.448C127.236 61.448 124.42 60.744 121.988 59.336C119.599 57.928 117.722 55.9653 116.356 53.448C115.034 50.9307 114.372 48.0293 114.372 44.744C114.372 41.6293 115.034 38.856 116.356 36.424C117.679 33.992 119.514 32.072 121.86 30.664C124.207 29.256 126.874 28.552 129.86 28.552C132.89 28.552 135.556 29.2133 137.86 30.536C140.164 31.8587 141.956 33.7147 143.236 36.104C144.559 38.4507 145.22 41.1813 145.22 44.296C145.22 44.808 145.199 45.3627 145.156 45.96C145.114 46.5147 145.05 47.112 144.964 47.752H122.18C122.394 49.2453 122.863 50.5467 123.588 51.656C124.356 52.7227 125.316 53.5547 126.468 54.152C127.62 54.7493 128.943 55.048 130.436 55.048C132.228 55.048 133.828 54.6853 135.236 53.96C136.687 53.2347 137.69 52.2747 138.244 51.08L144.58 53.192C143.3 55.752 141.402 57.7787 138.884 59.272C136.367 60.7227 133.551 61.448 130.436 61.448ZM137.348 41.864C137.306 40.5413 136.943 39.3467 136.26 38.28C135.578 37.2133 134.682 36.3813 133.572 35.784C132.463 35.144 131.226 34.824 129.86 34.824C128.666 34.824 127.535 35.1227 126.468 35.72C125.402 36.3173 124.484 37.1493 123.716 38.216C122.991 39.24 122.522 40.456 122.308 41.864H137.348ZM175.59 56.264C174.566 57.7147 173.115 58.952 171.238 59.976C169.361 60.9573 167.163 61.448 164.646 61.448C161.787 61.448 159.27 60.7653 157.094 59.4C154.961 58.0347 153.297 56.1147 152.102 53.64C150.907 51.1653 150.31 48.2853 150.31 45C150.31 41.672 150.907 38.792 152.102 36.36C153.297 33.8853 154.961 31.9653 157.094 30.6C159.27 29.2347 161.787 28.552 164.646 28.552C166.993 28.552 169.019 28.9787 170.726 29.832C172.433 30.6853 173.841 31.7307 174.95 32.968L175.462 29H181.99V73.8H174.758V56.072L175.59 56.264ZM158.054 45C158.054 47.944 158.822 50.3333 160.358 52.168C161.894 54.0027 163.899 54.92 166.374 54.92C167.867 54.92 169.233 54.536 170.47 53.768C171.75 53 172.774 51.8907 173.542 50.44C174.353 48.9467 174.758 47.1333 174.758 45C174.758 42.824 174.353 41.0107 173.542 39.56C172.774 38.1093 171.75 37 170.47 36.232C169.233 35.464 167.867 35.08 166.374 35.08C163.899 35.08 161.894 35.9973 160.358 37.832C158.822 39.6667 158.054 42.056 158.054 45ZM217.867 61H211.211L210.763 57.8C209.697 58.952 208.417 59.848 206.923 60.488C205.43 61.128 203.851 61.448 202.187 61.448C199.67 61.448 197.494 60.936 195.659 59.912C193.867 58.8453 192.481 57.3093 191.499 55.304C190.518 53.256 190.027 50.7387 190.027 47.752V29H197.259V46.792C197.259 49.4373 197.793 51.464 198.859 52.872C199.926 54.2373 201.569 54.92 203.787 54.92C205.921 54.92 207.585 54.2373 208.779 52.872C210.017 51.464 210.635 49.3947 210.635 46.664V29H217.867V61ZM227.312 29H234.544V61H227.312V29ZM230.96 24.136C229.637 24.136 228.528 23.688 227.632 22.792C226.736 21.896 226.288 20.8293 226.288 19.592C226.288 18.2693 226.736 17.16 227.632 16.264C228.528 15.368 229.637 14.92 230.96 14.92C232.24 14.92 233.328 15.368 234.224 16.264C235.12 17.16 235.568 18.2693 235.568 19.592C235.568 20.8293 235.12 21.896 234.224 22.792C233.328 23.688 232.24 24.136 230.96 24.136Z" fill="#3F6212"/>
</svg>
